G04 #@! TF.FileFunction,Legend,Bot*
%FSLAX46Y46*%
G04 Gerber Fmt 4.6, Leading zero omitted, Abs format (unit mm)*
G04 Created by KiCad (PCBNEW 4.0.7-e2-6376~58~ubuntu16.04.1) date Fri Mar  9 14:48:57 2018*
%MOMM*%
%LPD*%
G01*
G04 APERTURE LIST*
%ADD10C,0.150000*%
%ADD11C,0.304800*%
G04 APERTURE END LIST*
D10*
D11*
X181464856Y-56129162D02*
X181464856Y-58161162D01*
X181972856Y-56709733D01*
X182480856Y-58161162D01*
X182480856Y-56129162D01*
X183859713Y-56129162D02*
X183859713Y-57193543D01*
X183787142Y-57387067D01*
X183641999Y-57483829D01*
X183351713Y-57483829D01*
X183206570Y-57387067D01*
X183859713Y-56225924D02*
X183714570Y-56129162D01*
X183351713Y-56129162D01*
X183206570Y-56225924D01*
X183133999Y-56419448D01*
X183133999Y-56612971D01*
X183206570Y-56806495D01*
X183351713Y-56903257D01*
X183714570Y-56903257D01*
X183859713Y-57000019D01*
X185238570Y-57483829D02*
X185238570Y-55838876D01*
X185165999Y-55645352D01*
X185093427Y-55548590D01*
X184948284Y-55451829D01*
X184730570Y-55451829D01*
X184585427Y-55548590D01*
X185238570Y-56225924D02*
X185093427Y-56129162D01*
X184803141Y-56129162D01*
X184657999Y-56225924D01*
X184585427Y-56322686D01*
X184512856Y-56516210D01*
X184512856Y-57096781D01*
X184585427Y-57290305D01*
X184657999Y-57387067D01*
X184803141Y-57483829D01*
X185093427Y-57483829D01*
X185238570Y-57387067D01*
X185964284Y-57483829D02*
X185964284Y-56129162D01*
X185964284Y-57290305D02*
X186036856Y-57387067D01*
X186181998Y-57483829D01*
X186399713Y-57483829D01*
X186544856Y-57387067D01*
X186617427Y-57193543D01*
X186617427Y-56129162D01*
X187923713Y-56225924D02*
X187778570Y-56129162D01*
X187488284Y-56129162D01*
X187343141Y-56225924D01*
X187270570Y-56419448D01*
X187270570Y-57193543D01*
X187343141Y-57387067D01*
X187488284Y-57483829D01*
X187778570Y-57483829D01*
X187923713Y-57387067D01*
X187996284Y-57193543D01*
X187996284Y-57000019D01*
X187270570Y-56806495D01*
X188431713Y-57483829D02*
X189012284Y-57483829D01*
X188649427Y-58161162D02*
X188649427Y-56419448D01*
X188721999Y-56225924D01*
X188867141Y-56129162D01*
X189012284Y-56129162D01*
X189737998Y-56129162D02*
X189592856Y-56225924D01*
X189520284Y-56322686D01*
X189447713Y-56516210D01*
X189447713Y-57096781D01*
X189520284Y-57290305D01*
X189592856Y-57387067D01*
X189737998Y-57483829D01*
X189955713Y-57483829D01*
X190100856Y-57387067D01*
X190173427Y-57290305D01*
X190245998Y-57096781D01*
X190245998Y-56516210D01*
X190173427Y-56322686D01*
X190100856Y-56225924D01*
X189955713Y-56129162D01*
X189737998Y-56129162D01*
X190681427Y-58161162D02*
X191552284Y-58161162D01*
X191116855Y-56129162D02*
X191116855Y-58161162D01*
X192640856Y-56225924D02*
X192495713Y-56129162D01*
X192205427Y-56129162D01*
X192060284Y-56225924D01*
X191987713Y-56419448D01*
X191987713Y-57193543D01*
X192060284Y-57387067D01*
X192205427Y-57483829D01*
X192495713Y-57483829D01*
X192640856Y-57387067D01*
X192713427Y-57193543D01*
X192713427Y-57000019D01*
X191987713Y-56806495D01*
X193148856Y-57483829D02*
X193729427Y-57483829D01*
X193366570Y-58161162D02*
X193366570Y-56419448D01*
X193439142Y-56225924D01*
X193584284Y-56129162D01*
X193729427Y-56129162D01*
X194237427Y-56129162D02*
X194237427Y-58161162D01*
X194890570Y-56129162D02*
X194890570Y-57193543D01*
X194817999Y-57387067D01*
X194672856Y-57483829D01*
X194455141Y-57483829D01*
X194309999Y-57387067D01*
X194237427Y-57290305D01*
X196196856Y-56225924D02*
X196051713Y-56129162D01*
X195761427Y-56129162D01*
X195616284Y-56225924D01*
X195543713Y-56419448D01*
X195543713Y-57193543D01*
X195616284Y-57387067D01*
X195761427Y-57483829D01*
X196051713Y-57483829D01*
X196196856Y-57387067D01*
X196269427Y-57193543D01*
X196269427Y-57000019D01*
X195543713Y-56806495D01*
X196922570Y-56129162D02*
X196922570Y-57483829D01*
X196922570Y-57096781D02*
X196995142Y-57290305D01*
X197067713Y-57387067D01*
X197212856Y-57483829D01*
X197357999Y-57483829D01*
X198954571Y-56709733D02*
X199680285Y-56709733D01*
X198809428Y-56129162D02*
X199317428Y-58161162D01*
X199825428Y-56129162D01*
X200333428Y-56129162D02*
X200333428Y-57483829D01*
X200333428Y-57096781D02*
X200406000Y-57290305D01*
X200478571Y-57387067D01*
X200623714Y-57483829D01*
X200768857Y-57483829D01*
X201857429Y-56225924D02*
X201712286Y-56129162D01*
X201422000Y-56129162D01*
X201276857Y-56225924D01*
X201204286Y-56419448D01*
X201204286Y-57193543D01*
X201276857Y-57387067D01*
X201422000Y-57483829D01*
X201712286Y-57483829D01*
X201857429Y-57387067D01*
X201930000Y-57193543D01*
X201930000Y-57000019D01*
X201204286Y-56806495D01*
X202583143Y-57483829D02*
X202583143Y-56129162D01*
X202583143Y-57290305D02*
X202655715Y-57387067D01*
X202800857Y-57483829D01*
X203018572Y-57483829D01*
X203163715Y-57387067D01*
X203236286Y-57193543D01*
X203236286Y-56129162D01*
X204615143Y-56129162D02*
X204615143Y-57193543D01*
X204542572Y-57387067D01*
X204397429Y-57483829D01*
X204107143Y-57483829D01*
X203962000Y-57387067D01*
X204615143Y-56225924D02*
X204470000Y-56129162D01*
X204107143Y-56129162D01*
X203962000Y-56225924D01*
X203889429Y-56419448D01*
X203889429Y-56612971D01*
X203962000Y-56806495D01*
X204107143Y-56903257D01*
X204470000Y-56903257D01*
X204615143Y-57000019D01*
X206284286Y-58161162D02*
X206792286Y-56129162D01*
X207300286Y-58161162D01*
X208098572Y-58161162D02*
X208243715Y-58161162D01*
X208388858Y-58064400D01*
X208461429Y-57967638D01*
X208534000Y-57774114D01*
X208606572Y-57387067D01*
X208606572Y-56903257D01*
X208534000Y-56516210D01*
X208461429Y-56322686D01*
X208388858Y-56225924D01*
X208243715Y-56129162D01*
X208098572Y-56129162D01*
X207953429Y-56225924D01*
X207880858Y-56322686D01*
X207808286Y-56516210D01*
X207735715Y-56903257D01*
X207735715Y-57387067D01*
X207808286Y-57774114D01*
X207880858Y-57967638D01*
X207953429Y-58064400D01*
X208098572Y-58161162D01*
X209259715Y-56322686D02*
X209332287Y-56225924D01*
X209259715Y-56129162D01*
X209187144Y-56225924D01*
X209259715Y-56322686D01*
X209259715Y-56129162D01*
X210783715Y-56129162D02*
X209912858Y-56129162D01*
X210348286Y-56129162D02*
X210348286Y-58161162D01*
X210203143Y-57870876D01*
X210058001Y-57677352D01*
X209912858Y-57580590D01*
X184948286Y-52776362D02*
X184948286Y-54808362D01*
X185311143Y-54808362D01*
X185528858Y-54711600D01*
X185674000Y-54518076D01*
X185746572Y-54324552D01*
X185819143Y-53937505D01*
X185819143Y-53647219D01*
X185746572Y-53260171D01*
X185674000Y-53066648D01*
X185528858Y-52873124D01*
X185311143Y-52776362D01*
X184948286Y-52776362D01*
X186472286Y-52776362D02*
X186472286Y-54131029D01*
X186472286Y-54808362D02*
X186399715Y-54711600D01*
X186472286Y-54614838D01*
X186544858Y-54711600D01*
X186472286Y-54808362D01*
X186472286Y-54614838D01*
X187851143Y-52873124D02*
X187706000Y-52776362D01*
X187415714Y-52776362D01*
X187270572Y-52873124D01*
X187198000Y-52969886D01*
X187125429Y-53163410D01*
X187125429Y-53743981D01*
X187198000Y-53937505D01*
X187270572Y-54034267D01*
X187415714Y-54131029D01*
X187706000Y-54131029D01*
X187851143Y-54034267D01*
X188504286Y-52776362D02*
X188504286Y-54808362D01*
X188649429Y-53550457D02*
X189084858Y-52776362D01*
X189084858Y-54131029D02*
X188504286Y-53356933D01*
X189738000Y-52776362D02*
X189738000Y-54131029D01*
X189738000Y-54808362D02*
X189665429Y-54711600D01*
X189738000Y-54614838D01*
X189810572Y-54711600D01*
X189738000Y-54808362D01*
X189738000Y-54614838D01*
X190463714Y-54131029D02*
X190463714Y-52776362D01*
X190463714Y-53937505D02*
X190536286Y-54034267D01*
X190681428Y-54131029D01*
X190899143Y-54131029D01*
X191044286Y-54034267D01*
X191116857Y-53840743D01*
X191116857Y-52776362D01*
X191770000Y-52873124D02*
X191915143Y-52776362D01*
X192205428Y-52776362D01*
X192350571Y-52873124D01*
X192423143Y-53066648D01*
X192423143Y-53163410D01*
X192350571Y-53356933D01*
X192205428Y-53453695D01*
X191987714Y-53453695D01*
X191842571Y-53550457D01*
X191770000Y-53743981D01*
X191770000Y-53840743D01*
X191842571Y-54034267D01*
X191987714Y-54131029D01*
X192205428Y-54131029D01*
X192350571Y-54034267D01*
X193293999Y-52776362D02*
X193148857Y-52873124D01*
X193076285Y-52969886D01*
X193003714Y-53163410D01*
X193003714Y-53743981D01*
X193076285Y-53937505D01*
X193148857Y-54034267D01*
X193293999Y-54131029D01*
X193511714Y-54131029D01*
X193656857Y-54034267D01*
X193729428Y-53937505D01*
X193801999Y-53743981D01*
X193801999Y-53163410D01*
X193729428Y-52969886D01*
X193656857Y-52873124D01*
X193511714Y-52776362D01*
X193293999Y-52776362D01*
X194455142Y-54131029D02*
X194455142Y-52776362D01*
X194455142Y-53937505D02*
X194527714Y-54034267D01*
X194672856Y-54131029D01*
X194890571Y-54131029D01*
X195035714Y-54034267D01*
X195108285Y-53840743D01*
X195108285Y-52776362D01*
X197720856Y-52776362D02*
X196995142Y-52776362D01*
X196995142Y-54808362D01*
X198881999Y-52776362D02*
X198881999Y-53840743D01*
X198809428Y-54034267D01*
X198664285Y-54131029D01*
X198373999Y-54131029D01*
X198228856Y-54034267D01*
X198881999Y-52873124D02*
X198736856Y-52776362D01*
X198373999Y-52776362D01*
X198228856Y-52873124D01*
X198156285Y-53066648D01*
X198156285Y-53260171D01*
X198228856Y-53453695D01*
X198373999Y-53550457D01*
X198736856Y-53550457D01*
X198881999Y-53647219D01*
X199607713Y-52776362D02*
X199607713Y-54808362D01*
X199607713Y-54034267D02*
X199752856Y-54131029D01*
X200043142Y-54131029D01*
X200188285Y-54034267D01*
X200260856Y-53937505D01*
X200333427Y-53743981D01*
X200333427Y-53163410D01*
X200260856Y-52969886D01*
X200188285Y-52873124D01*
X200043142Y-52776362D01*
X199752856Y-52776362D01*
X199607713Y-52873124D01*
X202075142Y-54614838D02*
X202147713Y-54711600D01*
X202292856Y-54808362D01*
X202655713Y-54808362D01*
X202800856Y-54711600D01*
X202873427Y-54614838D01*
X202945999Y-54421314D01*
X202945999Y-54227790D01*
X202873427Y-53937505D01*
X202002570Y-52776362D01*
X202945999Y-52776362D01*
X203889428Y-54808362D02*
X204034571Y-54808362D01*
X204179714Y-54711600D01*
X204252285Y-54614838D01*
X204324856Y-54421314D01*
X204397428Y-54034267D01*
X204397428Y-53550457D01*
X204324856Y-53163410D01*
X204252285Y-52969886D01*
X204179714Y-52873124D01*
X204034571Y-52776362D01*
X203889428Y-52776362D01*
X203744285Y-52873124D01*
X203671714Y-52969886D01*
X203599142Y-53163410D01*
X203526571Y-53550457D01*
X203526571Y-54034267D01*
X203599142Y-54421314D01*
X203671714Y-54614838D01*
X203744285Y-54711600D01*
X203889428Y-54808362D01*
X205848857Y-52776362D02*
X204978000Y-52776362D01*
X205413428Y-52776362D02*
X205413428Y-54808362D01*
X205268285Y-54518076D01*
X205123143Y-54324552D01*
X204978000Y-54227790D01*
X206719714Y-53937505D02*
X206574572Y-54034267D01*
X206502000Y-54131029D01*
X206429429Y-54324552D01*
X206429429Y-54421314D01*
X206502000Y-54614838D01*
X206574572Y-54711600D01*
X206719714Y-54808362D01*
X207010000Y-54808362D01*
X207155143Y-54711600D01*
X207227714Y-54614838D01*
X207300286Y-54421314D01*
X207300286Y-54324552D01*
X207227714Y-54131029D01*
X207155143Y-54034267D01*
X207010000Y-53937505D01*
X206719714Y-53937505D01*
X206574572Y-53840743D01*
X206502000Y-53743981D01*
X206429429Y-53550457D01*
X206429429Y-53163410D01*
X206502000Y-52969886D01*
X206574572Y-52873124D01*
X206719714Y-52776362D01*
X207010000Y-52776362D01*
X207155143Y-52873124D01*
X207227714Y-52969886D01*
X207300286Y-53163410D01*
X207300286Y-53550457D01*
X207227714Y-53743981D01*
X207155143Y-53840743D01*
X207010000Y-53937505D01*
M02*
