M48
;DRILL file {KiCad 4.0.7-e2-6376~58~ubuntu16.04.1} date Fri Mar  9 14:49:00 2018
;FORMAT={-:-/ absolute / inch / decimal}
FMAT,2
INCH,TZ
T1C0.040
T2C0.047
T3C0.051
T4C0.070
T5C0.130
T6C0.149
T7C0.177
%
G90
G05
M72
T1
X2.286Y-3.09
X2.386Y-3.09
X2.486Y-3.09
X2.586Y-3.09
X2.686Y-3.09
X2.786Y-3.09
X2.886Y-3.09
X2.96Y-2.71
X2.986Y-3.09
X3.16Y-2.71
X3.564Y-3.09
X3.664Y-3.09
X3.764Y-3.09
X3.864Y-3.09
X3.964Y-3.09
X4.064Y-3.09
X4.164Y-3.09
X4.264Y-3.09
X4.41Y-2.71
X4.61Y-2.71
X4.842Y-3.09
X4.942Y-3.09
X5.042Y-3.09
X5.142Y-3.09
X5.242Y-3.09
X5.342Y-3.09
X5.442Y-3.09
X5.542Y-3.09
X5.77Y-2.71
X5.97Y-2.71
X6.12Y-3.09
X6.22Y-3.09
X6.314Y-2.5
X6.32Y-3.09
X6.368Y-2.4
X6.42Y-3.09
X6.422Y-2.5
X6.476Y-2.4
X6.52Y-3.09
X6.53Y-2.5
X6.584Y-2.4
X6.62Y-3.09
X6.638Y-2.5
X6.692Y-2.4
X6.72Y-3.09
X6.746Y-2.5
X6.82Y-3.09
X7.24Y-2.7
X7.398Y-3.09
X7.44Y-2.7
X7.498Y-3.09
X7.598Y-3.09
X7.698Y-3.09
X7.798Y-3.09
X7.898Y-3.09
X7.998Y-3.09
X8.098Y-3.09
T2
X4.3324Y-2.16
X4.6276Y-2.16
T3
X5.0348Y-2.47
X5.1332Y-2.5684
X5.2316Y-2.0763
X5.33Y-2.47
X5.4284Y-2.0763
X5.5268Y-2.5684
X5.6252Y-2.47
T4
X3.443Y-2.3
X3.63Y-2.3
X3.817Y-2.3
T5
X6.037Y-2.45
X7.023Y-2.45
T6
X2.5675Y-2.412
X7.8175Y-2.412
T7
X2.2Y-2.68
X8.2Y-2.68
T0
M30
