G04 #@! TF.FileFunction,Legend,Top*
%FSLAX46Y46*%
G04 Gerber Fmt 4.6, Leading zero omitted, Abs format (unit mm)*
G04 Created by KiCad (PCBNEW 4.0.7-e2-6376~58~ubuntu16.04.1) date Fri Mar  9 14:48:57 2018*
%MOMM*%
%LPD*%
G01*
G04 APERTURE LIST*
%ADD10C,0.150000*%
%ADD11C,0.304800*%
%ADD12C,0.381000*%
%ADD13C,0.203200*%
%ADD14C,0.152400*%
%ADD15C,0.812800*%
%ADD16C,0.508000*%
%ADD17C,0.127000*%
G04 APERTURE END LIST*
D10*
D11*
X109437714Y-60379429D02*
X108712000Y-60379429D01*
X108639429Y-61105143D01*
X108712000Y-61032571D01*
X108857143Y-60960000D01*
X109220000Y-60960000D01*
X109365143Y-61032571D01*
X109437714Y-61105143D01*
X109510286Y-61250286D01*
X109510286Y-61613143D01*
X109437714Y-61758286D01*
X109365143Y-61830857D01*
X109220000Y-61903429D01*
X108857143Y-61903429D01*
X108712000Y-61830857D01*
X108639429Y-61758286D01*
X109945715Y-60379429D02*
X110453715Y-61903429D01*
X110961715Y-60379429D01*
X116440858Y-60452000D02*
X116295715Y-60379429D01*
X116078001Y-60379429D01*
X115860286Y-60452000D01*
X115715144Y-60597143D01*
X115642572Y-60742286D01*
X115570001Y-61032571D01*
X115570001Y-61250286D01*
X115642572Y-61540571D01*
X115715144Y-61685714D01*
X115860286Y-61830857D01*
X116078001Y-61903429D01*
X116223144Y-61903429D01*
X116440858Y-61830857D01*
X116513429Y-61758286D01*
X116513429Y-61250286D01*
X116223144Y-61250286D01*
X117166572Y-61903429D02*
X117166572Y-60379429D01*
X118037429Y-61903429D01*
X118037429Y-60379429D01*
X118763143Y-61903429D02*
X118763143Y-60379429D01*
X119126000Y-60379429D01*
X119343715Y-60452000D01*
X119488857Y-60597143D01*
X119561429Y-60742286D01*
X119634000Y-61032571D01*
X119634000Y-61250286D01*
X119561429Y-61540571D01*
X119488857Y-61685714D01*
X119343715Y-61830857D01*
X119126000Y-61903429D01*
X118763143Y-61903429D01*
D12*
X50825400Y-87122000D02*
X83083400Y-87122000D01*
X83083400Y-87122000D02*
X83083400Y-72517000D01*
X83083400Y-72517000D02*
X50825400Y-72517000D01*
X50825400Y-72517000D02*
X50825400Y-87122000D01*
D13*
X72669400Y-77216000D02*
X73939400Y-77216000D01*
X73939400Y-77216000D02*
X74574400Y-77851000D01*
X74574400Y-79121000D02*
X73939400Y-79756000D01*
X69494400Y-77851000D02*
X70129400Y-77216000D01*
X70129400Y-77216000D02*
X71399400Y-77216000D01*
X71399400Y-77216000D02*
X72034400Y-77851000D01*
X72034400Y-79121000D02*
X71399400Y-79756000D01*
X71399400Y-79756000D02*
X70129400Y-79756000D01*
X70129400Y-79756000D02*
X69494400Y-79121000D01*
X72669400Y-77216000D02*
X72034400Y-77851000D01*
X72034400Y-79121000D02*
X72669400Y-79756000D01*
X73939400Y-79756000D02*
X72669400Y-79756000D01*
X65049400Y-77216000D02*
X66319400Y-77216000D01*
X66319400Y-77216000D02*
X66954400Y-77851000D01*
X66954400Y-79121000D02*
X66319400Y-79756000D01*
X66954400Y-77851000D02*
X67589400Y-77216000D01*
X67589400Y-77216000D02*
X68859400Y-77216000D01*
X68859400Y-77216000D02*
X69494400Y-77851000D01*
X69494400Y-79121000D02*
X68859400Y-79756000D01*
X68859400Y-79756000D02*
X67589400Y-79756000D01*
X67589400Y-79756000D02*
X66954400Y-79121000D01*
X61874400Y-77851000D02*
X62509400Y-77216000D01*
X62509400Y-77216000D02*
X63779400Y-77216000D01*
X63779400Y-77216000D02*
X64414400Y-77851000D01*
X64414400Y-79121000D02*
X63779400Y-79756000D01*
X63779400Y-79756000D02*
X62509400Y-79756000D01*
X62509400Y-79756000D02*
X61874400Y-79121000D01*
X65049400Y-77216000D02*
X64414400Y-77851000D01*
X64414400Y-79121000D02*
X65049400Y-79756000D01*
X66319400Y-79756000D02*
X65049400Y-79756000D01*
X57429400Y-77216000D02*
X58699400Y-77216000D01*
X58699400Y-77216000D02*
X59334400Y-77851000D01*
X59334400Y-79121000D02*
X58699400Y-79756000D01*
X59334400Y-77851000D02*
X59969400Y-77216000D01*
X59969400Y-77216000D02*
X61239400Y-77216000D01*
X61239400Y-77216000D02*
X61874400Y-77851000D01*
X61874400Y-79121000D02*
X61239400Y-79756000D01*
X61239400Y-79756000D02*
X59969400Y-79756000D01*
X59969400Y-79756000D02*
X59334400Y-79121000D01*
X56794400Y-77851000D02*
X56794400Y-79121000D01*
X57429400Y-77216000D02*
X56794400Y-77851000D01*
X56794400Y-79121000D02*
X57429400Y-79756000D01*
X58699400Y-79756000D02*
X57429400Y-79756000D01*
X75209400Y-77216000D02*
X76479400Y-77216000D01*
X76479400Y-77216000D02*
X77114400Y-77851000D01*
X77114400Y-77851000D02*
X77114400Y-79121000D01*
X77114400Y-79121000D02*
X76479400Y-79756000D01*
X75209400Y-77216000D02*
X74574400Y-77851000D01*
X74574400Y-79121000D02*
X75209400Y-79756000D01*
X76479400Y-79756000D02*
X75209400Y-79756000D01*
D12*
X115748000Y-87122000D02*
X148006000Y-87122000D01*
X148006000Y-87122000D02*
X148006000Y-72517000D01*
X148006000Y-72517000D02*
X115748000Y-72517000D01*
X115748000Y-72517000D02*
X115748000Y-87122000D01*
D13*
X137592000Y-77216000D02*
X138862000Y-77216000D01*
X138862000Y-77216000D02*
X139497000Y-77851000D01*
X139497000Y-79121000D02*
X138862000Y-79756000D01*
X134417000Y-77851000D02*
X135052000Y-77216000D01*
X135052000Y-77216000D02*
X136322000Y-77216000D01*
X136322000Y-77216000D02*
X136957000Y-77851000D01*
X136957000Y-79121000D02*
X136322000Y-79756000D01*
X136322000Y-79756000D02*
X135052000Y-79756000D01*
X135052000Y-79756000D02*
X134417000Y-79121000D01*
X137592000Y-77216000D02*
X136957000Y-77851000D01*
X136957000Y-79121000D02*
X137592000Y-79756000D01*
X138862000Y-79756000D02*
X137592000Y-79756000D01*
X129972000Y-77216000D02*
X131242000Y-77216000D01*
X131242000Y-77216000D02*
X131877000Y-77851000D01*
X131877000Y-79121000D02*
X131242000Y-79756000D01*
X131877000Y-77851000D02*
X132512000Y-77216000D01*
X132512000Y-77216000D02*
X133782000Y-77216000D01*
X133782000Y-77216000D02*
X134417000Y-77851000D01*
X134417000Y-79121000D02*
X133782000Y-79756000D01*
X133782000Y-79756000D02*
X132512000Y-79756000D01*
X132512000Y-79756000D02*
X131877000Y-79121000D01*
X126797000Y-77851000D02*
X127432000Y-77216000D01*
X127432000Y-77216000D02*
X128702000Y-77216000D01*
X128702000Y-77216000D02*
X129337000Y-77851000D01*
X129337000Y-79121000D02*
X128702000Y-79756000D01*
X128702000Y-79756000D02*
X127432000Y-79756000D01*
X127432000Y-79756000D02*
X126797000Y-79121000D01*
X129972000Y-77216000D02*
X129337000Y-77851000D01*
X129337000Y-79121000D02*
X129972000Y-79756000D01*
X131242000Y-79756000D02*
X129972000Y-79756000D01*
X122352000Y-77216000D02*
X123622000Y-77216000D01*
X123622000Y-77216000D02*
X124257000Y-77851000D01*
X124257000Y-79121000D02*
X123622000Y-79756000D01*
X124257000Y-77851000D02*
X124892000Y-77216000D01*
X124892000Y-77216000D02*
X126162000Y-77216000D01*
X126162000Y-77216000D02*
X126797000Y-77851000D01*
X126797000Y-79121000D02*
X126162000Y-79756000D01*
X126162000Y-79756000D02*
X124892000Y-79756000D01*
X124892000Y-79756000D02*
X124257000Y-79121000D01*
X121717000Y-77851000D02*
X121717000Y-79121000D01*
X122352000Y-77216000D02*
X121717000Y-77851000D01*
X121717000Y-79121000D02*
X122352000Y-79756000D01*
X123622000Y-79756000D02*
X122352000Y-79756000D01*
X140132000Y-77216000D02*
X141402000Y-77216000D01*
X141402000Y-77216000D02*
X142037000Y-77851000D01*
X142037000Y-77851000D02*
X142037000Y-79121000D01*
X142037000Y-79121000D02*
X141402000Y-79756000D01*
X140132000Y-77216000D02*
X139497000Y-77851000D01*
X139497000Y-79121000D02*
X140132000Y-79756000D01*
X141402000Y-79756000D02*
X140132000Y-79756000D01*
D12*
X180670000Y-87122000D02*
X212928000Y-87122000D01*
X212928000Y-87122000D02*
X212928000Y-72517000D01*
X212928000Y-72517000D02*
X180670000Y-72517000D01*
X180670000Y-72517000D02*
X180670000Y-87122000D01*
D13*
X202514000Y-77216000D02*
X203784000Y-77216000D01*
X203784000Y-77216000D02*
X204419000Y-77851000D01*
X204419000Y-79121000D02*
X203784000Y-79756000D01*
X199339000Y-77851000D02*
X199974000Y-77216000D01*
X199974000Y-77216000D02*
X201244000Y-77216000D01*
X201244000Y-77216000D02*
X201879000Y-77851000D01*
X201879000Y-79121000D02*
X201244000Y-79756000D01*
X201244000Y-79756000D02*
X199974000Y-79756000D01*
X199974000Y-79756000D02*
X199339000Y-79121000D01*
X202514000Y-77216000D02*
X201879000Y-77851000D01*
X201879000Y-79121000D02*
X202514000Y-79756000D01*
X203784000Y-79756000D02*
X202514000Y-79756000D01*
X194894000Y-77216000D02*
X196164000Y-77216000D01*
X196164000Y-77216000D02*
X196799000Y-77851000D01*
X196799000Y-79121000D02*
X196164000Y-79756000D01*
X196799000Y-77851000D02*
X197434000Y-77216000D01*
X197434000Y-77216000D02*
X198704000Y-77216000D01*
X198704000Y-77216000D02*
X199339000Y-77851000D01*
X199339000Y-79121000D02*
X198704000Y-79756000D01*
X198704000Y-79756000D02*
X197434000Y-79756000D01*
X197434000Y-79756000D02*
X196799000Y-79121000D01*
X191719000Y-77851000D02*
X192354000Y-77216000D01*
X192354000Y-77216000D02*
X193624000Y-77216000D01*
X193624000Y-77216000D02*
X194259000Y-77851000D01*
X194259000Y-79121000D02*
X193624000Y-79756000D01*
X193624000Y-79756000D02*
X192354000Y-79756000D01*
X192354000Y-79756000D02*
X191719000Y-79121000D01*
X194894000Y-77216000D02*
X194259000Y-77851000D01*
X194259000Y-79121000D02*
X194894000Y-79756000D01*
X196164000Y-79756000D02*
X194894000Y-79756000D01*
X187274000Y-77216000D02*
X188544000Y-77216000D01*
X188544000Y-77216000D02*
X189179000Y-77851000D01*
X189179000Y-79121000D02*
X188544000Y-79756000D01*
X189179000Y-77851000D02*
X189814000Y-77216000D01*
X189814000Y-77216000D02*
X191084000Y-77216000D01*
X191084000Y-77216000D02*
X191719000Y-77851000D01*
X191719000Y-79121000D02*
X191084000Y-79756000D01*
X191084000Y-79756000D02*
X189814000Y-79756000D01*
X189814000Y-79756000D02*
X189179000Y-79121000D01*
X186639000Y-77851000D02*
X186639000Y-79121000D01*
X187274000Y-77216000D02*
X186639000Y-77851000D01*
X186639000Y-79121000D02*
X187274000Y-79756000D01*
X188544000Y-79756000D02*
X187274000Y-79756000D01*
X205054000Y-77216000D02*
X206324000Y-77216000D01*
X206324000Y-77216000D02*
X206959000Y-77851000D01*
X206959000Y-77851000D02*
X206959000Y-79121000D01*
X206959000Y-79121000D02*
X206324000Y-79756000D01*
X205054000Y-77216000D02*
X204419000Y-77851000D01*
X204419000Y-79121000D02*
X205054000Y-79756000D01*
X206324000Y-79756000D02*
X205054000Y-79756000D01*
D12*
X148209000Y-87122000D02*
X180467000Y-87122000D01*
X180467000Y-87122000D02*
X180467000Y-72517000D01*
X180467000Y-72517000D02*
X148209000Y-72517000D01*
X148209000Y-72517000D02*
X148209000Y-87122000D01*
D13*
X170053000Y-77216000D02*
X171323000Y-77216000D01*
X171323000Y-77216000D02*
X171958000Y-77851000D01*
X171958000Y-79121000D02*
X171323000Y-79756000D01*
X166878000Y-77851000D02*
X167513000Y-77216000D01*
X167513000Y-77216000D02*
X168783000Y-77216000D01*
X168783000Y-77216000D02*
X169418000Y-77851000D01*
X169418000Y-79121000D02*
X168783000Y-79756000D01*
X168783000Y-79756000D02*
X167513000Y-79756000D01*
X167513000Y-79756000D02*
X166878000Y-79121000D01*
X170053000Y-77216000D02*
X169418000Y-77851000D01*
X169418000Y-79121000D02*
X170053000Y-79756000D01*
X171323000Y-79756000D02*
X170053000Y-79756000D01*
X162433000Y-77216000D02*
X163703000Y-77216000D01*
X163703000Y-77216000D02*
X164338000Y-77851000D01*
X164338000Y-79121000D02*
X163703000Y-79756000D01*
X164338000Y-77851000D02*
X164973000Y-77216000D01*
X164973000Y-77216000D02*
X166243000Y-77216000D01*
X166243000Y-77216000D02*
X166878000Y-77851000D01*
X166878000Y-79121000D02*
X166243000Y-79756000D01*
X166243000Y-79756000D02*
X164973000Y-79756000D01*
X164973000Y-79756000D02*
X164338000Y-79121000D01*
X159258000Y-77851000D02*
X159893000Y-77216000D01*
X159893000Y-77216000D02*
X161163000Y-77216000D01*
X161163000Y-77216000D02*
X161798000Y-77851000D01*
X161798000Y-79121000D02*
X161163000Y-79756000D01*
X161163000Y-79756000D02*
X159893000Y-79756000D01*
X159893000Y-79756000D02*
X159258000Y-79121000D01*
X162433000Y-77216000D02*
X161798000Y-77851000D01*
X161798000Y-79121000D02*
X162433000Y-79756000D01*
X163703000Y-79756000D02*
X162433000Y-79756000D01*
X154813000Y-77216000D02*
X156083000Y-77216000D01*
X156083000Y-77216000D02*
X156718000Y-77851000D01*
X156718000Y-79121000D02*
X156083000Y-79756000D01*
X156718000Y-77851000D02*
X157353000Y-77216000D01*
X157353000Y-77216000D02*
X158623000Y-77216000D01*
X158623000Y-77216000D02*
X159258000Y-77851000D01*
X159258000Y-79121000D02*
X158623000Y-79756000D01*
X158623000Y-79756000D02*
X157353000Y-79756000D01*
X157353000Y-79756000D02*
X156718000Y-79121000D01*
X154178000Y-77851000D02*
X154178000Y-79121000D01*
X154813000Y-77216000D02*
X154178000Y-77851000D01*
X154178000Y-79121000D02*
X154813000Y-79756000D01*
X156083000Y-79756000D02*
X154813000Y-79756000D01*
X172593000Y-77216000D02*
X173863000Y-77216000D01*
X173863000Y-77216000D02*
X174498000Y-77851000D01*
X174498000Y-77851000D02*
X174498000Y-79121000D01*
X174498000Y-79121000D02*
X173863000Y-79756000D01*
X172593000Y-77216000D02*
X171958000Y-77851000D01*
X171958000Y-79121000D02*
X172593000Y-79756000D01*
X173863000Y-79756000D02*
X172593000Y-79756000D01*
D12*
X83286600Y-87122000D02*
X115544600Y-87122000D01*
X115544600Y-87122000D02*
X115544600Y-72517000D01*
X115544600Y-72517000D02*
X83286600Y-72517000D01*
X83286600Y-72517000D02*
X83286600Y-87122000D01*
D13*
X105130600Y-77216000D02*
X106400600Y-77216000D01*
X106400600Y-77216000D02*
X107035600Y-77851000D01*
X107035600Y-79121000D02*
X106400600Y-79756000D01*
X101955600Y-77851000D02*
X102590600Y-77216000D01*
X102590600Y-77216000D02*
X103860600Y-77216000D01*
X103860600Y-77216000D02*
X104495600Y-77851000D01*
X104495600Y-79121000D02*
X103860600Y-79756000D01*
X103860600Y-79756000D02*
X102590600Y-79756000D01*
X102590600Y-79756000D02*
X101955600Y-79121000D01*
X105130600Y-77216000D02*
X104495600Y-77851000D01*
X104495600Y-79121000D02*
X105130600Y-79756000D01*
X106400600Y-79756000D02*
X105130600Y-79756000D01*
X97510600Y-77216000D02*
X98780600Y-77216000D01*
X98780600Y-77216000D02*
X99415600Y-77851000D01*
X99415600Y-79121000D02*
X98780600Y-79756000D01*
X99415600Y-77851000D02*
X100050600Y-77216000D01*
X100050600Y-77216000D02*
X101320600Y-77216000D01*
X101320600Y-77216000D02*
X101955600Y-77851000D01*
X101955600Y-79121000D02*
X101320600Y-79756000D01*
X101320600Y-79756000D02*
X100050600Y-79756000D01*
X100050600Y-79756000D02*
X99415600Y-79121000D01*
X94335600Y-77851000D02*
X94970600Y-77216000D01*
X94970600Y-77216000D02*
X96240600Y-77216000D01*
X96240600Y-77216000D02*
X96875600Y-77851000D01*
X96875600Y-79121000D02*
X96240600Y-79756000D01*
X96240600Y-79756000D02*
X94970600Y-79756000D01*
X94970600Y-79756000D02*
X94335600Y-79121000D01*
X97510600Y-77216000D02*
X96875600Y-77851000D01*
X96875600Y-79121000D02*
X97510600Y-79756000D01*
X98780600Y-79756000D02*
X97510600Y-79756000D01*
X89890600Y-77216000D02*
X91160600Y-77216000D01*
X91160600Y-77216000D02*
X91795600Y-77851000D01*
X91795600Y-79121000D02*
X91160600Y-79756000D01*
X91795600Y-77851000D02*
X92430600Y-77216000D01*
X92430600Y-77216000D02*
X93700600Y-77216000D01*
X93700600Y-77216000D02*
X94335600Y-77851000D01*
X94335600Y-79121000D02*
X93700600Y-79756000D01*
X93700600Y-79756000D02*
X92430600Y-79756000D01*
X92430600Y-79756000D02*
X91795600Y-79121000D01*
X89255600Y-77851000D02*
X89255600Y-79121000D01*
X89890600Y-77216000D02*
X89255600Y-77851000D01*
X89255600Y-79121000D02*
X89890600Y-79756000D01*
X91160600Y-79756000D02*
X89890600Y-79756000D01*
X107670600Y-77216000D02*
X108940600Y-77216000D01*
X108940600Y-77216000D02*
X109575600Y-77851000D01*
X109575600Y-77851000D02*
X109575600Y-79121000D01*
X109575600Y-79121000D02*
X108940600Y-79756000D01*
X107670600Y-77216000D02*
X107035600Y-77851000D01*
X107035600Y-79121000D02*
X107670600Y-79756000D01*
X108940600Y-79756000D02*
X107670600Y-79756000D01*
X156210000Y-51562000D02*
X155956000Y-51562000D01*
X155956000Y-51562000D02*
X155956000Y-53975000D01*
X156210000Y-53975000D02*
X155956000Y-53975000D01*
X156210000Y-51562000D02*
X156210000Y-53975000D01*
X175768000Y-51562000D02*
X175514000Y-51562000D01*
X175514000Y-51562000D02*
X175514000Y-53975000D01*
X175768000Y-53975000D02*
X175514000Y-53975000D01*
X175768000Y-51562000D02*
X175768000Y-53975000D01*
X153847800Y-54610000D02*
X152831800Y-54610000D01*
X152831800Y-54610000D02*
X152831800Y-56261000D01*
X153847800Y-56261000D02*
X152831800Y-56261000D01*
X153847800Y-54610000D02*
X153847800Y-56261000D01*
X178892200Y-54610000D02*
X177876200Y-54610000D01*
X177876200Y-54610000D02*
X177876200Y-56261000D01*
X178892200Y-56261000D02*
X177876200Y-56261000D01*
X178892200Y-54610000D02*
X178892200Y-56261000D01*
X175133000Y-54610000D02*
X156591000Y-54610000D01*
X156591000Y-54610000D02*
X156591000Y-55372000D01*
X175133000Y-55372000D02*
X156591000Y-55372000D01*
X175133000Y-54610000D02*
X175133000Y-55372000D01*
X181356000Y-50546000D02*
X150368000Y-50546000D01*
X150368000Y-50546000D02*
X150368000Y-51054000D01*
X181356000Y-51054000D02*
X150368000Y-51054000D01*
X181356000Y-50546000D02*
X181356000Y-51054000D01*
X171754800Y-55372000D02*
X170942000Y-55372000D01*
X170942000Y-55372000D02*
X170942000Y-62611000D01*
X171754800Y-62611000D02*
X170942000Y-62611000D01*
X171754800Y-55372000D02*
X171754800Y-62611000D01*
X170383200Y-55372000D02*
X169570400Y-55372000D01*
X169570400Y-55372000D02*
X169570400Y-60071000D01*
X170383200Y-60071000D02*
X169570400Y-60071000D01*
X170383200Y-55372000D02*
X170383200Y-60071000D01*
X169011600Y-55372000D02*
X168198800Y-55372000D01*
X168198800Y-55372000D02*
X168198800Y-62611000D01*
X169011600Y-62611000D02*
X168198800Y-62611000D01*
X169011600Y-55372000D02*
X169011600Y-62611000D01*
X167640000Y-55372000D02*
X166827200Y-55372000D01*
X166827200Y-55372000D02*
X166827200Y-60071000D01*
X167640000Y-60071000D02*
X166827200Y-60071000D01*
X167640000Y-55372000D02*
X167640000Y-60071000D01*
X166268400Y-55372000D02*
X165455600Y-55372000D01*
X165455600Y-55372000D02*
X165455600Y-62611000D01*
X166268400Y-62611000D02*
X165455600Y-62611000D01*
X166268400Y-55372000D02*
X166268400Y-62611000D01*
X164896800Y-55372000D02*
X164084000Y-55372000D01*
X164084000Y-55372000D02*
X164084000Y-60071000D01*
X164896800Y-60071000D02*
X164084000Y-60071000D01*
X164896800Y-55372000D02*
X164896800Y-60071000D01*
X163525200Y-55372000D02*
X162712400Y-55372000D01*
X162712400Y-55372000D02*
X162712400Y-62611000D01*
X163525200Y-62611000D02*
X162712400Y-62611000D01*
X163525200Y-55372000D02*
X163525200Y-62611000D01*
X162153600Y-55372000D02*
X161340800Y-55372000D01*
X161340800Y-55372000D02*
X161340800Y-60071000D01*
X162153600Y-60071000D02*
X161340800Y-60071000D01*
X162153600Y-55372000D02*
X162153600Y-60071000D01*
X160782000Y-55372000D02*
X159969200Y-55372000D01*
X159969200Y-55372000D02*
X159969200Y-62611000D01*
X160782000Y-62611000D02*
X159969200Y-62611000D01*
X160782000Y-55372000D02*
X160782000Y-62611000D01*
D14*
X157607000Y-44706540D02*
X157861000Y-44706540D01*
X157480000Y-50546000D02*
X157480000Y-45212000D01*
X157480000Y-50546000D02*
X174244000Y-50546000D01*
X174244000Y-50546000D02*
X174244000Y-45212000D01*
X150368000Y-54610000D02*
X155448000Y-54610000D01*
X150368000Y-54610000D02*
X150368000Y-51562000D01*
X150368000Y-54610000D02*
X150368000Y-54737000D01*
X150368000Y-51562000D02*
X152908000Y-51562000D01*
X150368000Y-51562000D02*
X150368000Y-51054000D01*
X150368000Y-51054000D02*
X150368000Y-50546000D01*
X181356000Y-50546000D02*
X181356000Y-51054000D01*
X181356000Y-51054000D02*
X181356000Y-51562000D01*
X181356000Y-51562000D02*
X181356000Y-54610000D01*
X181356000Y-54610000D02*
X181356000Y-54737000D01*
X152908000Y-51816000D02*
X155448000Y-51816000D01*
X150368000Y-51054000D02*
X152908000Y-51054000D01*
X152908000Y-51054000D02*
X155448000Y-51054000D01*
X152908000Y-51562000D02*
X152908000Y-51054000D01*
X152908000Y-51562000D02*
X152908000Y-51816000D01*
X155448000Y-51816000D02*
X155448000Y-51562000D01*
X155448000Y-51562000D02*
X155448000Y-51054000D01*
X150368000Y-54737000D02*
X155448000Y-54737000D01*
X155448000Y-54737000D02*
X155448000Y-54610000D01*
X155448000Y-51562000D02*
X155575000Y-51562000D01*
X155575000Y-51562000D02*
X176149000Y-51562000D01*
X155448000Y-54610000D02*
X156337000Y-54610000D01*
X156337000Y-54610000D02*
X156591000Y-54610000D01*
X155575000Y-53975000D02*
X155575000Y-51562000D01*
X156591000Y-54610000D02*
X156591000Y-55372000D01*
X156591000Y-54610000D02*
X175133000Y-54610000D01*
X156591000Y-55372000D02*
X175133000Y-55372000D01*
X175133000Y-54610000D02*
X175133000Y-55372000D01*
X175133000Y-54610000D02*
X175387000Y-54610000D01*
X175387000Y-54610000D02*
X175514000Y-54610000D01*
X175514000Y-54610000D02*
X176276000Y-54610000D01*
X176276000Y-54737000D02*
X181356000Y-54737000D01*
X178816000Y-51562000D02*
X178816000Y-51054000D01*
X178816000Y-51562000D02*
X181356000Y-51562000D01*
X178816000Y-51054000D02*
X181356000Y-51054000D01*
X176276000Y-51816000D02*
X178816000Y-51816000D01*
X178816000Y-51562000D02*
X178816000Y-51816000D01*
X155448000Y-51054000D02*
X176276000Y-51054000D01*
X176276000Y-51054000D02*
X178816000Y-51054000D01*
X176276000Y-51816000D02*
X176276000Y-51562000D01*
X176276000Y-51562000D02*
X176276000Y-51054000D01*
X176149000Y-53975000D02*
X176149000Y-51562000D01*
X176149000Y-51562000D02*
X176276000Y-51562000D01*
X151003000Y-65405000D02*
X150368000Y-64770000D01*
X150368000Y-64770000D02*
X150368000Y-54737000D01*
X155829000Y-65405000D02*
X151003000Y-65405000D01*
X155829000Y-65405000D02*
X156337000Y-64897000D01*
X156337000Y-64897000D02*
X156337000Y-54610000D01*
X175387000Y-64897000D02*
X175387000Y-54610000D01*
X175387000Y-64897000D02*
X175895000Y-65405000D01*
X175895000Y-65405000D02*
X180848000Y-65405000D01*
X180848000Y-65405000D02*
X181356000Y-64897000D01*
X181356000Y-64897000D02*
X181356000Y-54737000D01*
X170942000Y-48260000D02*
X168656000Y-48260000D01*
X168656000Y-48260000D02*
X168656000Y-45974000D01*
X168656000Y-45974000D02*
X169037000Y-45974000D01*
X169037000Y-45974000D02*
X169037000Y-47881540D01*
X169037000Y-47881540D02*
X170561000Y-47881540D01*
X170561000Y-47881540D02*
X170561000Y-45974000D01*
X170561000Y-45974000D02*
X170942000Y-45974000D01*
X170942000Y-45974000D02*
X170942000Y-48260000D01*
X167005000Y-48260000D02*
X164719000Y-48260000D01*
X164719000Y-48260000D02*
X164719000Y-45974000D01*
X164719000Y-45974000D02*
X165100000Y-45974000D01*
X165100000Y-45974000D02*
X165100000Y-47881540D01*
X165100000Y-47881540D02*
X166624000Y-47881540D01*
X166624000Y-47881540D02*
X166624000Y-45974000D01*
X166624000Y-45974000D02*
X167005000Y-45974000D01*
X167005000Y-45974000D02*
X167005000Y-48260000D01*
X163068000Y-48260000D02*
X160782000Y-48260000D01*
X160782000Y-48260000D02*
X160782000Y-45974000D01*
X160782000Y-45974000D02*
X161163000Y-45974000D01*
X161163000Y-45974000D02*
X161163000Y-47881540D01*
X161163000Y-47881540D02*
X162687000Y-47881540D01*
X162687000Y-47881540D02*
X162687000Y-45974000D01*
X162687000Y-45974000D02*
X163068000Y-45974000D01*
X163068000Y-45974000D02*
X163068000Y-48260000D01*
X176276000Y-54737000D02*
X176276000Y-54610000D01*
X176276000Y-54610000D02*
X181356000Y-54610000D01*
X174244000Y-50546000D02*
X175260000Y-50546000D01*
X175260000Y-50546000D02*
X181356000Y-50546000D01*
X174622460Y-49911000D02*
X174622460Y-45212000D01*
X150368000Y-50546000D02*
X156464000Y-50546000D01*
X156464000Y-50546000D02*
X157480000Y-50546000D01*
X157101540Y-49911000D02*
X157101540Y-45212000D01*
X173863000Y-50038000D02*
X173863000Y-44706540D01*
X173863000Y-44706540D02*
X174117000Y-44706540D01*
X157861000Y-50038000D02*
X157861000Y-44706540D01*
X157861000Y-44706540D02*
X173863000Y-44706540D01*
D15*
X165862000Y-63373000D02*
X165862000Y-62357000D01*
X163118800Y-63373000D02*
X163118800Y-62357000D01*
X160375600Y-63373000D02*
X160375600Y-62357000D01*
X161747200Y-60833000D02*
X161747200Y-59817000D01*
X164490400Y-60833000D02*
X164490400Y-59817000D01*
X167233600Y-60833000D02*
X167233600Y-59817000D01*
X168605200Y-63373000D02*
X168605200Y-62357000D01*
X169976800Y-60833000D02*
X169976800Y-59817000D01*
X171348400Y-63373000D02*
X171348400Y-62357000D01*
D14*
X154507233Y-62230000D02*
G75*
G03X154507233Y-62230000I-1167433J0D01*
G01*
X179551633Y-62230000D02*
G75*
G03X179551633Y-62230000I-1167433J0D01*
G01*
X157607000Y-44706540D02*
G75*
G03X157101540Y-45212000I0J-505460D01*
G01*
X174622460Y-45212000D02*
G75*
G03X174117000Y-44706540I-505460J0D01*
G01*
X155575000Y-53975000D02*
G75*
G03X156210000Y-54610000I635000J0D01*
G01*
X175514000Y-54610000D02*
G75*
G03X176149000Y-53975000I0J635000D01*
G01*
X174625000Y-49911000D02*
G75*
G03X175260000Y-50546000I635000J0D01*
G01*
X156464000Y-50548540D02*
G75*
G03X157101540Y-49911000I0J637540D01*
G01*
D16*
X106292000Y-54864000D02*
X106292000Y-50864000D01*
X106292000Y-50864000D02*
X121292000Y-50864000D01*
X121292000Y-50864000D02*
X121292000Y-54864000D01*
X121292000Y-54864000D02*
X121292000Y-59864000D01*
X121292000Y-59864000D02*
X106292000Y-59864000D01*
X106292000Y-59864000D02*
X106292000Y-54864000D01*
D12*
X101854000Y-60960000D02*
X82550000Y-60960000D01*
X82550000Y-60960000D02*
X82550000Y-50800000D01*
X82550000Y-50800000D02*
X101854000Y-50800000D01*
X101854000Y-50800000D02*
X101854000Y-60960000D01*
X144381220Y-50739040D02*
X144381220Y-64736980D01*
X144381220Y-64736980D02*
X142379700Y-64736980D01*
X142379700Y-64736980D02*
X142379700Y-67236340D01*
X142379700Y-67236340D02*
X128384300Y-67236340D01*
X128384300Y-67236340D02*
X128384300Y-64736980D01*
X128384300Y-64736980D02*
X126382780Y-64736980D01*
X126382780Y-64736980D02*
X126382780Y-50739040D01*
X126382780Y-50739040D02*
X144381220Y-50739040D01*
D13*
X59436000Y-68072000D02*
G75*
G03X59436000Y-68072000I-3556000J0D01*
G01*
X211836000Y-68072000D02*
G75*
G03X211836000Y-68072000I-3556000J0D01*
G01*
D12*
X82550000Y-71374000D02*
X72898000Y-71374000D01*
D13*
X72898000Y-66548000D02*
X72898000Y-66294000D01*
D12*
X72898000Y-66294000D02*
X82550000Y-66294000D01*
X82550000Y-66294000D02*
X82550000Y-68834000D01*
X72898000Y-71374000D02*
X72898000Y-66548000D01*
X82550000Y-68834000D02*
X82550000Y-71374000D01*
D13*
X77470000Y-67691000D02*
X76835000Y-67691000D01*
X76835000Y-67691000D02*
X76835000Y-69977000D01*
X77470000Y-69977000D02*
X76835000Y-69977000D01*
X77470000Y-67691000D02*
X77470000Y-69977000D01*
D14*
X78867000Y-68834000D02*
X78613000Y-68834000D01*
X78613000Y-68834000D02*
X78613000Y-67691000D01*
X78613000Y-67691000D02*
X77978000Y-67691000D01*
X77978000Y-67691000D02*
X77978000Y-69977000D01*
X77978000Y-69977000D02*
X78613000Y-69977000D01*
X78613000Y-69977000D02*
X78613000Y-68834000D01*
X77089000Y-68834000D02*
X76581000Y-68834000D01*
X84074000Y-69215000D02*
X84074000Y-68453000D01*
X83693000Y-68834000D02*
X84455000Y-68834000D01*
X76581000Y-68834000D02*
X76073000Y-68834000D01*
X79375000Y-68834000D02*
X78867000Y-68834000D01*
D12*
X119380000Y-71374000D02*
X109728000Y-71374000D01*
D13*
X109728000Y-66548000D02*
X109728000Y-66294000D01*
D12*
X109728000Y-66294000D02*
X119380000Y-66294000D01*
X119380000Y-66294000D02*
X119380000Y-68834000D01*
X109728000Y-71374000D02*
X109728000Y-66548000D01*
X119380000Y-68834000D02*
X119380000Y-71374000D01*
D13*
X114300000Y-67691000D02*
X113665000Y-67691000D01*
X113665000Y-67691000D02*
X113665000Y-69977000D01*
X114300000Y-69977000D02*
X113665000Y-69977000D01*
X114300000Y-67691000D02*
X114300000Y-69977000D01*
D14*
X115697000Y-68834000D02*
X115443000Y-68834000D01*
X115443000Y-68834000D02*
X115443000Y-67691000D01*
X115443000Y-67691000D02*
X114808000Y-67691000D01*
X114808000Y-67691000D02*
X114808000Y-69977000D01*
X114808000Y-69977000D02*
X115443000Y-69977000D01*
X115443000Y-69977000D02*
X115443000Y-68834000D01*
X113919000Y-68834000D02*
X113411000Y-68834000D01*
X120904000Y-69215000D02*
X120904000Y-68453000D01*
X120523000Y-68834000D02*
X121285000Y-68834000D01*
X113411000Y-68834000D02*
X112903000Y-68834000D01*
X116205000Y-68834000D02*
X115697000Y-68834000D01*
D12*
X153924000Y-71374000D02*
X144272000Y-71374000D01*
D13*
X144272000Y-66548000D02*
X144272000Y-66294000D01*
D12*
X144272000Y-66294000D02*
X153924000Y-66294000D01*
X153924000Y-66294000D02*
X153924000Y-68834000D01*
X144272000Y-71374000D02*
X144272000Y-66548000D01*
X153924000Y-68834000D02*
X153924000Y-71374000D01*
D13*
X148844000Y-67691000D02*
X148209000Y-67691000D01*
X148209000Y-67691000D02*
X148209000Y-69977000D01*
X148844000Y-69977000D02*
X148209000Y-69977000D01*
X148844000Y-67691000D02*
X148844000Y-69977000D01*
D14*
X150241000Y-68834000D02*
X149987000Y-68834000D01*
X149987000Y-68834000D02*
X149987000Y-67691000D01*
X149987000Y-67691000D02*
X149352000Y-67691000D01*
X149352000Y-67691000D02*
X149352000Y-69977000D01*
X149352000Y-69977000D02*
X149987000Y-69977000D01*
X149987000Y-69977000D02*
X149987000Y-68834000D01*
X148463000Y-68834000D02*
X147955000Y-68834000D01*
X155448000Y-69215000D02*
X155448000Y-68453000D01*
X155067000Y-68834000D02*
X155829000Y-68834000D01*
X147955000Y-68834000D02*
X147447000Y-68834000D01*
X150749000Y-68834000D02*
X150241000Y-68834000D01*
D12*
X191262000Y-71120000D02*
X181610000Y-71120000D01*
D13*
X181610000Y-66294000D02*
X181610000Y-66040000D01*
D12*
X181610000Y-66040000D02*
X191262000Y-66040000D01*
X191262000Y-66040000D02*
X191262000Y-68580000D01*
X181610000Y-71120000D02*
X181610000Y-66294000D01*
X191262000Y-68580000D02*
X191262000Y-71120000D01*
D13*
X186182000Y-67437000D02*
X185547000Y-67437000D01*
X185547000Y-67437000D02*
X185547000Y-69723000D01*
X186182000Y-69723000D02*
X185547000Y-69723000D01*
X186182000Y-67437000D02*
X186182000Y-69723000D01*
D14*
X187579000Y-68580000D02*
X187325000Y-68580000D01*
X187325000Y-68580000D02*
X187325000Y-67437000D01*
X187325000Y-67437000D02*
X186690000Y-67437000D01*
X186690000Y-67437000D02*
X186690000Y-69723000D01*
X186690000Y-69723000D02*
X187325000Y-69723000D01*
X187325000Y-69723000D02*
X187325000Y-68580000D01*
X185801000Y-68580000D02*
X185293000Y-68580000D01*
X192786000Y-68961000D02*
X192786000Y-68199000D01*
X192405000Y-68580000D02*
X193167000Y-68580000D01*
X185293000Y-68580000D02*
X184785000Y-68580000D01*
X188087000Y-68580000D02*
X187579000Y-68580000D01*
D12*
X65214500Y-50800000D02*
X58864500Y-50800000D01*
X58864500Y-50800000D02*
X58864500Y-64820800D01*
X65214500Y-50800000D02*
X71564500Y-50800000D01*
X71564500Y-50800000D02*
X71564500Y-64820800D01*
X65214500Y-64820800D02*
X58864500Y-64820800D01*
X65214500Y-64820800D02*
X71564500Y-64820800D01*
X198564000Y-50800000D02*
X192214000Y-50800000D01*
X192214000Y-50800000D02*
X192214000Y-64820800D01*
X198564000Y-50800000D02*
X204914000Y-50800000D01*
X204914000Y-50800000D02*
X204914000Y-64820800D01*
X198564000Y-64820800D02*
X192214000Y-64820800D01*
X198564000Y-64820800D02*
X204914000Y-64820800D01*
D13*
X59067096Y-71833619D02*
X59067096Y-70817619D01*
X59454143Y-70817619D01*
X59550905Y-70866000D01*
X59599286Y-70914381D01*
X59647667Y-71011143D01*
X59647667Y-71156286D01*
X59599286Y-71253048D01*
X59550905Y-71301429D01*
X59454143Y-71349810D01*
X59067096Y-71349810D01*
X60615286Y-71833619D02*
X60034715Y-71833619D01*
X60325001Y-71833619D02*
X60325001Y-70817619D01*
X60228239Y-70962762D01*
X60131477Y-71059524D01*
X60034715Y-71107905D01*
X131127096Y-71757419D02*
X131127096Y-70741419D01*
X131514143Y-70741419D01*
X131610905Y-70789800D01*
X131659286Y-70838181D01*
X131707667Y-70934943D01*
X131707667Y-71080086D01*
X131659286Y-71176848D01*
X131610905Y-71225229D01*
X131514143Y-71273610D01*
X131127096Y-71273610D01*
X132046334Y-70741419D02*
X132675286Y-70741419D01*
X132336620Y-71128467D01*
X132481762Y-71128467D01*
X132578524Y-71176848D01*
X132626905Y-71225229D01*
X132675286Y-71321990D01*
X132675286Y-71563895D01*
X132626905Y-71660657D01*
X132578524Y-71709038D01*
X132481762Y-71757419D01*
X132191477Y-71757419D01*
X132094715Y-71709038D01*
X132046334Y-71660657D01*
X195998296Y-71859019D02*
X195998296Y-70843019D01*
X196385343Y-70843019D01*
X196482105Y-70891400D01*
X196530486Y-70939781D01*
X196578867Y-71036543D01*
X196578867Y-71181686D01*
X196530486Y-71278448D01*
X196482105Y-71326829D01*
X196385343Y-71375210D01*
X195998296Y-71375210D01*
X197498105Y-70843019D02*
X197014296Y-70843019D01*
X196965915Y-71326829D01*
X197014296Y-71278448D01*
X197111058Y-71230067D01*
X197352962Y-71230067D01*
X197449724Y-71278448D01*
X197498105Y-71326829D01*
X197546486Y-71423590D01*
X197546486Y-71665495D01*
X197498105Y-71762257D01*
X197449724Y-71810638D01*
X197352962Y-71859019D01*
X197111058Y-71859019D01*
X197014296Y-71810638D01*
X196965915Y-71762257D01*
X163588096Y-71782819D02*
X163588096Y-70766819D01*
X163975143Y-70766819D01*
X164071905Y-70815200D01*
X164120286Y-70863581D01*
X164168667Y-70960343D01*
X164168667Y-71105486D01*
X164120286Y-71202248D01*
X164071905Y-71250629D01*
X163975143Y-71299010D01*
X163588096Y-71299010D01*
X165039524Y-71105486D02*
X165039524Y-71782819D01*
X164797620Y-70718438D02*
X164555715Y-71444152D01*
X165184667Y-71444152D01*
X87388096Y-71579619D02*
X87388096Y-70563619D01*
X87775143Y-70563619D01*
X87871905Y-70612000D01*
X87920286Y-70660381D01*
X87968667Y-70757143D01*
X87968667Y-70902286D01*
X87920286Y-70999048D01*
X87871905Y-71047429D01*
X87775143Y-71095810D01*
X87388096Y-71095810D01*
X88355715Y-70660381D02*
X88404096Y-70612000D01*
X88500858Y-70563619D01*
X88742762Y-70563619D01*
X88839524Y-70612000D01*
X88887905Y-70660381D01*
X88936286Y-70757143D01*
X88936286Y-70853905D01*
X88887905Y-70999048D01*
X88307334Y-71579619D01*
X88936286Y-71579619D01*
X149049619Y-57996667D02*
X149775333Y-57996667D01*
X149920476Y-58045047D01*
X150017238Y-58141809D01*
X150065619Y-58286952D01*
X150065619Y-58383714D01*
X150065619Y-56980667D02*
X150065619Y-57561238D01*
X150065619Y-57270952D02*
X149049619Y-57270952D01*
X149194762Y-57367714D01*
X149291524Y-57464476D01*
X149339905Y-57561238D01*
D17*
X173844857Y-63439524D02*
X173119143Y-63439524D01*
X173482000Y-63439524D02*
X173482000Y-62169524D01*
X173361048Y-62350952D01*
X173240095Y-62471905D01*
X173119143Y-62532381D01*
X158927921Y-62169524D02*
X158323159Y-62169524D01*
X158262683Y-62774286D01*
X158323159Y-62713810D01*
X158444111Y-62653333D01*
X158746492Y-62653333D01*
X158867445Y-62713810D01*
X158927921Y-62774286D01*
X158988397Y-62895238D01*
X158988397Y-63197619D01*
X158927921Y-63318571D01*
X158867445Y-63379048D01*
X158746492Y-63439524D01*
X158444111Y-63439524D01*
X158323159Y-63379048D01*
X158262683Y-63318571D01*
X158383635Y-60899524D02*
X158625540Y-60899524D01*
X158746492Y-60839048D01*
X158806968Y-60778571D01*
X158927921Y-60597143D01*
X158988397Y-60355238D01*
X158988397Y-59871429D01*
X158927921Y-59750476D01*
X158867445Y-59690000D01*
X158746492Y-59629524D01*
X158504588Y-59629524D01*
X158383635Y-59690000D01*
X158323159Y-59750476D01*
X158262683Y-59871429D01*
X158262683Y-60173810D01*
X158323159Y-60294762D01*
X158383635Y-60355238D01*
X158504588Y-60415714D01*
X158746492Y-60415714D01*
X158867445Y-60355238D01*
X158927921Y-60294762D01*
X158988397Y-60173810D01*
X173723905Y-59502524D02*
X173482000Y-59502524D01*
X173361048Y-59563000D01*
X173300571Y-59623476D01*
X173179619Y-59804905D01*
X173119143Y-60046810D01*
X173119143Y-60530619D01*
X173179619Y-60651571D01*
X173240095Y-60712048D01*
X173361048Y-60772524D01*
X173602952Y-60772524D01*
X173723905Y-60712048D01*
X173784381Y-60651571D01*
X173844857Y-60530619D01*
X173844857Y-60228238D01*
X173784381Y-60107286D01*
X173723905Y-60046810D01*
X173602952Y-59986333D01*
X173361048Y-59986333D01*
X173240095Y-60046810D01*
X173179619Y-60107286D01*
X173119143Y-60228238D01*
D13*
X105818819Y-56885114D02*
X104802819Y-56885114D01*
X104802819Y-56498067D01*
X104851200Y-56401305D01*
X104899581Y-56352924D01*
X104996343Y-56304543D01*
X105141486Y-56304543D01*
X105238248Y-56352924D01*
X105286629Y-56401305D01*
X105335010Y-56498067D01*
X105335010Y-56885114D01*
X105818819Y-55336924D02*
X105818819Y-55917495D01*
X105818819Y-55627209D02*
X104802819Y-55627209D01*
X104947962Y-55723971D01*
X105044724Y-55820733D01*
X105093105Y-55917495D01*
X104802819Y-54998257D02*
X104802819Y-54369305D01*
X105189867Y-54707971D01*
X105189867Y-54562829D01*
X105238248Y-54466067D01*
X105286629Y-54417686D01*
X105383390Y-54369305D01*
X105625295Y-54369305D01*
X105722057Y-54417686D01*
X105770438Y-54466067D01*
X105818819Y-54562829D01*
X105818819Y-54853114D01*
X105770438Y-54949876D01*
X105722057Y-54998257D01*
X81945238Y-57234666D02*
X81993619Y-57089523D01*
X81993619Y-56847619D01*
X81945238Y-56750857D01*
X81896857Y-56702476D01*
X81800095Y-56654095D01*
X81703333Y-56654095D01*
X81606571Y-56702476D01*
X81558190Y-56750857D01*
X81509810Y-56847619D01*
X81461429Y-57041142D01*
X81413048Y-57137904D01*
X81364667Y-57186285D01*
X81267905Y-57234666D01*
X81171143Y-57234666D01*
X81074381Y-57186285D01*
X81026000Y-57137904D01*
X80977619Y-57041142D01*
X80977619Y-56799238D01*
X81026000Y-56654095D01*
X80977619Y-56315428D02*
X81993619Y-56073523D01*
X81267905Y-55880000D01*
X81993619Y-55686476D01*
X80977619Y-55444571D01*
X81993619Y-54525333D02*
X81993619Y-55105904D01*
X81993619Y-54815618D02*
X80977619Y-54815618D01*
X81122762Y-54912380D01*
X81219524Y-55009142D01*
X81267905Y-55105904D01*
X125935619Y-57113714D02*
X124919619Y-57113714D01*
X124919619Y-56726667D01*
X124968000Y-56629905D01*
X125016381Y-56581524D01*
X125113143Y-56533143D01*
X125258286Y-56533143D01*
X125355048Y-56581524D01*
X125403429Y-56629905D01*
X125451810Y-56726667D01*
X125451810Y-57113714D01*
X125935619Y-55565524D02*
X125935619Y-56146095D01*
X125935619Y-55855809D02*
X124919619Y-55855809D01*
X125064762Y-55952571D01*
X125161524Y-56049333D01*
X125209905Y-56146095D01*
X125016381Y-55178476D02*
X124968000Y-55130095D01*
X124919619Y-55033333D01*
X124919619Y-54791429D01*
X124968000Y-54694667D01*
X125016381Y-54646286D01*
X125113143Y-54597905D01*
X125209905Y-54597905D01*
X125355048Y-54646286D01*
X125935619Y-55226857D01*
X125935619Y-54597905D01*
X71458667Y-69196857D02*
X71410286Y-69245238D01*
X71265143Y-69293619D01*
X71168381Y-69293619D01*
X71023239Y-69245238D01*
X70926477Y-69148476D01*
X70878096Y-69051714D01*
X70829715Y-68858190D01*
X70829715Y-68713048D01*
X70878096Y-68519524D01*
X70926477Y-68422762D01*
X71023239Y-68326000D01*
X71168381Y-68277619D01*
X71265143Y-68277619D01*
X71410286Y-68326000D01*
X71458667Y-68374381D01*
X72426286Y-69293619D02*
X71845715Y-69293619D01*
X72136001Y-69293619D02*
X72136001Y-68277619D01*
X72039239Y-68422762D01*
X71942477Y-68519524D01*
X71845715Y-68567905D01*
X108288667Y-69196857D02*
X108240286Y-69245238D01*
X108095143Y-69293619D01*
X107998381Y-69293619D01*
X107853239Y-69245238D01*
X107756477Y-69148476D01*
X107708096Y-69051714D01*
X107659715Y-68858190D01*
X107659715Y-68713048D01*
X107708096Y-68519524D01*
X107756477Y-68422762D01*
X107853239Y-68326000D01*
X107998381Y-68277619D01*
X108095143Y-68277619D01*
X108240286Y-68326000D01*
X108288667Y-68374381D01*
X108675715Y-68374381D02*
X108724096Y-68326000D01*
X108820858Y-68277619D01*
X109062762Y-68277619D01*
X109159524Y-68326000D01*
X109207905Y-68374381D01*
X109256286Y-68471143D01*
X109256286Y-68567905D01*
X109207905Y-68713048D01*
X108627334Y-69293619D01*
X109256286Y-69293619D01*
X142832667Y-69196857D02*
X142784286Y-69245238D01*
X142639143Y-69293619D01*
X142542381Y-69293619D01*
X142397239Y-69245238D01*
X142300477Y-69148476D01*
X142252096Y-69051714D01*
X142203715Y-68858190D01*
X142203715Y-68713048D01*
X142252096Y-68519524D01*
X142300477Y-68422762D01*
X142397239Y-68326000D01*
X142542381Y-68277619D01*
X142639143Y-68277619D01*
X142784286Y-68326000D01*
X142832667Y-68374381D01*
X143171334Y-68277619D02*
X143800286Y-68277619D01*
X143461620Y-68664667D01*
X143606762Y-68664667D01*
X143703524Y-68713048D01*
X143751905Y-68761429D01*
X143800286Y-68858190D01*
X143800286Y-69100095D01*
X143751905Y-69196857D01*
X143703524Y-69245238D01*
X143606762Y-69293619D01*
X143316477Y-69293619D01*
X143219715Y-69245238D01*
X143171334Y-69196857D01*
X179916667Y-69196857D02*
X179868286Y-69245238D01*
X179723143Y-69293619D01*
X179626381Y-69293619D01*
X179481239Y-69245238D01*
X179384477Y-69148476D01*
X179336096Y-69051714D01*
X179287715Y-68858190D01*
X179287715Y-68713048D01*
X179336096Y-68519524D01*
X179384477Y-68422762D01*
X179481239Y-68326000D01*
X179626381Y-68277619D01*
X179723143Y-68277619D01*
X179868286Y-68326000D01*
X179916667Y-68374381D01*
X180787524Y-68616286D02*
X180787524Y-69293619D01*
X180545620Y-68229238D02*
X180303715Y-68954952D01*
X180932667Y-68954952D01*
M02*
