G04 #@! TF.FileFunction,Copper,L1,Top,Signal*
%FSLAX46Y46*%
G04 Gerber Fmt 4.6, Leading zero omitted, Abs format (unit mm)*
G04 Created by KiCad (PCBNEW 4.0.7-e2-6376~58~ubuntu16.04.1) date Fri Mar  9 14:48:57 2018*
%MOMM*%
%LPD*%
G01*
G04 APERTURE LIST*
%ADD10C,0.150000*%
%ADD11R,1.524000X1.524000*%
%ADD12C,1.524000*%
%ADD13C,5.080000*%
%ADD14C,2.000000*%
%ADD15C,2.540000*%
%ADD16C,1.948180*%
%ADD17C,5.588000*%
%ADD18C,4.572000*%
%ADD19C,1.016000*%
%ADD20C,0.508000*%
G04 APERTURE END LIST*
D10*
D11*
X58064400Y-78486000D03*
D12*
X60604400Y-78486000D03*
X63144400Y-78486000D03*
X65684400Y-78486000D03*
X68224400Y-78486000D03*
X70764400Y-78486000D03*
X73304400Y-78486000D03*
X75844400Y-78486000D03*
D11*
X122987000Y-78486000D03*
D12*
X125527000Y-78486000D03*
X128067000Y-78486000D03*
X130607000Y-78486000D03*
X133147000Y-78486000D03*
X135687000Y-78486000D03*
X138227000Y-78486000D03*
X140767000Y-78486000D03*
D11*
X187909000Y-78486000D03*
D12*
X190449000Y-78486000D03*
X192989000Y-78486000D03*
X195529000Y-78486000D03*
X198069000Y-78486000D03*
X200609000Y-78486000D03*
X203149000Y-78486000D03*
X205689000Y-78486000D03*
D11*
X155448000Y-78486000D03*
D12*
X157988000Y-78486000D03*
X160528000Y-78486000D03*
X163068000Y-78486000D03*
X165608000Y-78486000D03*
X168148000Y-78486000D03*
X170688000Y-78486000D03*
X173228000Y-78486000D03*
D11*
X90525600Y-78486000D03*
D12*
X93065600Y-78486000D03*
X95605600Y-78486000D03*
X98145600Y-78486000D03*
X100685600Y-78486000D03*
X103225600Y-78486000D03*
X105765600Y-78486000D03*
X108305600Y-78486000D03*
X171348400Y-63500000D03*
X168605200Y-63500000D03*
X165862000Y-63500000D03*
X163118800Y-63500000D03*
X160375600Y-63500000D03*
X169976800Y-60960000D03*
X167233600Y-60960000D03*
X164490400Y-60960000D03*
X161747200Y-60960000D03*
D13*
X178384200Y-62230000D03*
X153339800Y-62230000D03*
D14*
X110042000Y-54864000D03*
X117542000Y-54864000D03*
D15*
X96951800Y-58420000D03*
X92202000Y-58420000D03*
X87452200Y-58420000D03*
D16*
X127883920Y-62738000D03*
X135382000Y-62738000D03*
X142880080Y-62738000D03*
X130383280Y-65237360D03*
X140380720Y-65237360D03*
X132882640Y-52738020D03*
X137881360Y-52738020D03*
D17*
X55880000Y-68072000D03*
X208280000Y-68072000D03*
D15*
X80264000Y-68834000D03*
X75184000Y-68834000D03*
X117094000Y-68834000D03*
X112014000Y-68834000D03*
X151638000Y-68834000D03*
X146558000Y-68834000D03*
X188976000Y-68580000D03*
X183896000Y-68580000D03*
D18*
X65214500Y-61264800D03*
X198564000Y-61264800D03*
D19*
X97180800Y-76910800D02*
X95605600Y-78486000D01*
X104190400Y-76910800D02*
X97180800Y-76910800D01*
X105765600Y-78486000D02*
X104190400Y-76910800D01*
X140853700Y-75859300D02*
X138227000Y-78486000D01*
X144612700Y-75859300D02*
X140853700Y-75859300D01*
X151638000Y-68834000D02*
X144612700Y-75859300D01*
D20*
X155448000Y-78486000D02*
X154126900Y-78486000D01*
X122987000Y-79807100D02*
X122987000Y-78486000D01*
X152805800Y-79807100D02*
X122987000Y-79807100D01*
X154126900Y-78486000D02*
X152805800Y-79807100D01*
X91846700Y-79807100D02*
X90525600Y-78486000D01*
X122987000Y-79807100D02*
X91846700Y-79807100D01*
X59390500Y-79812100D02*
X58064400Y-78486000D01*
X87878400Y-79812100D02*
X59390500Y-79812100D01*
X89204500Y-78486000D02*
X87878400Y-79812100D01*
X90525600Y-78486000D02*
X89204500Y-78486000D01*
X155448000Y-78486000D02*
X155448000Y-77164900D01*
X187909000Y-78486000D02*
X186587900Y-78486000D01*
X173481200Y-65379300D02*
X186587900Y-78486000D01*
X167233600Y-65379300D02*
X173481200Y-65379300D01*
X167233600Y-62915800D02*
X167233600Y-65379300D01*
X169189400Y-60960000D02*
X167233600Y-62915800D01*
X169976800Y-60960000D02*
X169189400Y-60960000D01*
X167233600Y-65379300D02*
X155448000Y-77164900D01*
X159309200Y-79807200D02*
X157988000Y-78486000D01*
X189127800Y-79807200D02*
X159309200Y-79807200D01*
X190449000Y-78486000D02*
X189127800Y-79807200D01*
D19*
X149446000Y-65946000D02*
X146558000Y-68834000D01*
X157929600Y-65946000D02*
X149446000Y-65946000D01*
X160375600Y-63500000D02*
X157929600Y-65946000D01*
X106730400Y-74117600D02*
X106730400Y-75589700D01*
X112014000Y-68834000D02*
X106730400Y-74117600D01*
X106730400Y-76910800D02*
X108305600Y-78486000D01*
X106730400Y-75589700D02*
X106730400Y-76910800D01*
X106730400Y-75589700D02*
X77419600Y-75589700D01*
X77419600Y-76910800D02*
X77419600Y-75589700D01*
X75844400Y-78486000D02*
X77419600Y-76910800D01*
X77419600Y-71069600D02*
X75184000Y-68834000D01*
X77419600Y-75589700D02*
X77419600Y-71069600D01*
X117542000Y-62738000D02*
X127883900Y-62738000D01*
X117542000Y-54864000D02*
X117542000Y-62738000D01*
X117542000Y-63306000D02*
X112014000Y-68834000D01*
X117542000Y-62738000D02*
X117542000Y-63306000D01*
M02*
